# xmcd
#
# Track frame offsets: 
#        150
#        7144
#        20554
#        34520
#        52582
#        71480
#        88725
#        106975
#        120089
#        142412
#
# Disc length: 2089 seconds
#
# Revision: 0
# Processed by: cddbd v1.5.2PL0 Copyright (c) Steve Scherf et al.
# Submitted via: ExactAudioCopy v0.99pb5
#
DISCID=7c08270a
DTITLE=Jim Bryson& The Weakerthans - The Falcon Lake Incident
DYEAR=2010
DGENRE=Country
TTITLE0=Raised All Wrong
TTITLE1=Metal Girls
TTITLE2=Fell off the Dock
TTITLE3=Wild Folk
TTITLE4=Constellation
TTITLE5=Freeways in the Frontyard
TTITLE6=Up All Night
TTITLE7=Kissing Cousins
TTITLE8=Decidedly
TTITLE9=Anything and All
EXTD=
EXTT0=
EXTT1=
EXTT2=
EXTT3=
EXTT4=
EXTT5=
EXTT6=
EXTT7=
EXTT8=
EXTT9=
PLAYORDER=
